<?xml version="1.0" encoding="iso-8859-1"?>
<!-- Generator: Adobe Illustrator 19.0.0, SVG Export Plug-In . SVG Version: 6.00 Build 0)  -->
<svg version="1.1" id="Layer_1" xmlns="http://www.w3.org/2000/svg" xmlns:xlink="http://www.w3.org/1999/xlink" x="0px" y="0px"
	 viewBox="0 0 512 512" style="enable-background:new 0 0 512 512;" xml:space="preserve">
<circle style="fill:#88C5CC;" cx="256" cy="256" r="256"/>
<path style="fill:#80B9BF;" d="M498.884,336.868c-0.2-0.416-0.364-0.852-0.576-1.264c-0.996-3.72-2.412-7.304-4.164-10.752
	c-0.944-3.304-2.24-6.484-3.804-9.536c-0.972-3.656-2.352-7.184-4.068-10.572c-1.296-4.812-3.284-9.42-5.804-13.796
	c-0.72-1.852-1.532-3.672-2.428-5.448c-0.944-3.252-2.216-6.412-3.752-9.416c-1-3.74-2.424-7.336-4.188-10.804
	c-0.94-3.28-2.228-6.448-3.78-9.492c-0.992-3.712-2.4-7.288-4.148-10.728c-0.944-3.32-2.244-6.52-3.82-9.584
	c-0.968-3.656-2.348-7.192-4.072-10.576c-1-3.708-2.416-7.296-4.164-10.752c-1.252-4.376-3.104-8.548-5.416-12.496
	c-0.704-1.848-1.5-3.656-2.404-5.416c-0.996-3.724-2.416-7.312-4.168-10.76c-0.944-3.296-2.24-6.48-3.804-9.536
	c-0.992-3.712-2.396-7.284-4.148-10.732c-1.604-5.628-4.216-10.916-7.54-15.792C410.804,124.936,381.772,108,360,108h-16h-88H152
	c-28,0-68,28-68,64v2.048v2.056V220l8,23.408c-3.796,0.62-6.704,3.904-6.704,7.868c0,3.32,0.568,6.5,1.572,9.476
	c0.52,2.288,1.304,4.476,2.332,6.516c0.456,1.404,1,2.752,1.656,4.048c0.452,1.396,1,2.752,1.656,4.032
	c0.452,1.4,1,2.744,1.652,4.028c0.068,0.216,0.136,0.424,0.212,0.636H80c-6.6,0-12,5.408-12,12v2.056v2.048V300v2.048v2.056
	c0,3.132,1.62,5.952,4,8.08L84,364v4l43.828,109.572C165.528,499.42,209.284,512,256,512C369.108,512,465.024,438.6,498.884,336.868
	z"/>
<path style="fill:#F2CB91;" d="M428,312v52c0,6.6-5.4,12-12,12H96c-6.6,0-12-5.4-12-12v-52H428z"/>
<path style="fill:#E6C18A;" d="M412,312v52c0,6.6-5.4,12-12,12h16c6.6,0,12-5.4,12-12v-52H412z"/>
<path style="fill:#FFD464;" d="M357.688,280.368c-15.624,0-28.336-13.052-28.336-29.092c0-7.22-5.536-13.084-12.336-13.084
	c-6.796,0-12.336,5.88-12.336,13.084c0,16.052-12.712,29.092-28.336,29.092S248,267.316,248,251.272
	c0-7.22-5.536-13.084-12.336-13.084s-12.336,5.876-12.336,13.084c0,16.048-12.712,29.088-28.336,29.088
	s-28.336-13.052-28.336-29.088c0-7.22-5.536-13.084-12.336-13.084s-12.336,5.876-12.336,13.084
	c0,16.048-12.712,29.088-28.336,29.088s-28.336-13.052-28.336-29.088c0-4.416,3.584-8,8-8s8,3.584,8,8
	c0,7.224,5.536,13.088,12.336,13.088c6.8,0,12.336-5.876,12.336-13.088c0-16.04,12.712-29.084,28.336-29.084
	s28.336,13.056,28.336,29.084c0,7.224,5.536,13.088,12.336,13.088s12.336-5.876,12.336-13.088c0-16.04,12.712-29.084,28.336-29.084
	S264,235.244,264,251.272c0,7.224,5.536,13.088,12.336,13.088s12.336-5.876,12.336-13.088c0-16.04,12.712-29.084,28.336-29.084
	s28.336,13.056,28.336,29.084c0,7.224,5.54,13.088,12.336,13.088c6.8,0,12.336-5.876,12.336-13.088
	c0-16.04,12.712-29.084,28.336-29.084s28.336,13.056,28.336,29.084c0,4.416-3.584,8-8,8s-8-3.584-8-8
	c0-7.22-5.536-13.084-12.336-13.084c-6.796,0-12.336,5.876-12.336,13.084C386.028,267.316,373.316,280.368,357.688,280.368z"/>
<path style="fill:#F2CB91;" d="M360,108H256H152c-28,0-68,28-68,64v48h172h172v-48C428,136,388,108,360,108z"/>
<path style="fill:#E6C18A;" d="M360,108h-16c28,0,68,28,68,64v48h16v-48C428,136,388,108,360,108z"/>
<path style="fill:#99392F;" d="M444,300c0,6.6-5.4,12-12,12H80c-6.6,0-12-5.4-12-12v-8c0-6.6,5.4-12,12-12h352c6.6,0,12,5.4,12,12
	V300z"/>
<g>
	<circle style="fill:#F5F5F5;" cx="132" cy="160" r="4"/>
	<circle style="fill:#F5F5F5;" cx="160" cy="140" r="4"/>
	<circle style="fill:#F5F5F5;" cx="232" cy="144" r="4"/>
	<circle style="fill:#F5F5F5;" cx="200" cy="136" r="4"/>
	<circle style="fill:#F5F5F5;" cx="176" cy="172" r="4"/>
	<circle style="fill:#F5F5F5;" cx="224" cy="180" r="4"/>
	<circle style="fill:#F5F5F5;" cx="272" cy="128" r="4"/>
	<circle style="fill:#F5F5F5;" cx="276" cy="168" r="4"/>
	<circle style="fill:#F5F5F5;" cx="320" cy="168" r="4"/>
	<circle style="fill:#F5F5F5;" cx="304" cy="184" r="4"/>
	<circle style="fill:#F5F5F5;" cx="312" cy="136" r="4"/>
	<circle style="fill:#F5F5F5;" cx="364" cy="168" r="4"/>
	<circle style="fill:#F5F5F5;" cx="348" cy="140" r="4"/>
	<circle style="fill:#F5F5F5;" cx="376" cy="140" r="4"/>
</g>
<path style="fill:#CC4C3F;" d="M408,296H84c-2.208,0-4-1.788-4-4s1.792-4,4-4h324c2.208,0,4,1.788,4,4S410.208,296,408,296z"/>
<g>
</g>
<g>
</g>
<g>
</g>
<g>
</g>
<g>
</g>
<g>
</g>
<g>
</g>
<g>
</g>
<g>
</g>
<g>
</g>
<g>
</g>
<g>
</g>
<g>
</g>
<g>
</g>
<g>
</g>
</svg>
